<?xml version="1.0" encoding="UTF-8"?>
<svg version="1.1" xmlns="http://www.w3.org/2000/svg" width="236" height="256">
<path d="M0 0 C5.1001033 0.58847346 8.52485503 2.25511966 12.85546875 5.00634766 C19.91257364 9.46766865 24.21122519 10.34535423 32.7265625 9.76171875 C38.60851524 10.18987999 41.95923919 14.04247584 46 18 C49.12266953 20.79856011 50.88340511 21.33931256 55.0625 21.125 C58.20072348 20.98342601 59.97298954 20.99099651 63 22 C62.8125 23.875 62.8125 23.875 62 26 C59.4375 27.25 59.4375 27.25 57 28 C57 29.98 57 31.96 57 34 C58.134375 34.268125 59.26875 34.53625 60.4375 34.8125 C61.613125 35.204375 62.78875 35.59625 64 36 C64.33 36.99 64.66 37.98 65 39 C64.505 39.99 64.505 39.99 64 41 C67.00778521 42.00259507 69.53820647 42.30314642 72.6875 42.5625 C73.68136719 42.64628906 74.67523438 42.73007812 75.69921875 42.81640625 C76.83810547 42.90728516 76.83810547 42.90728516 78 43 C77.67 43.99 77.34 44.98 77 46 C79.97 46.495 79.97 46.495 83 47 C83 47.66 83 48.32 83 49 C84.134375 49.26554687 85.26875 49.53109375 86.4375 49.8046875 C87.95834048 50.16142786 89.47917341 50.51820042 91 50.875 C91.74378906 51.04902344 92.48757812 51.22304688 93.25390625 51.40234375 C96.93199669 52.26589542 100.60000188 53.15167074 104.2578125 54.09765625 C107.18813051 54.80423606 109.88519126 55.31246261 112.875 55.5625 C115.31086631 55.77043981 116.80228469 55.90114234 119 57 C119 57.99 119 58.98 119 60 C121.00393821 61.58689564 121.00393821 61.58689564 123.5 63 C126.03125 64.5 126.03125 64.5 128 66 C128 66.99 128 67.98 128 69 C129.22075496 71.04405482 130.52455385 73.03920986 131.875 75 C132.59429687 76.051875 133.31359375 77.10375 134.0546875 78.1875 C134.69664062 79.115625 135.33859375 80.04375 136 81 C138.78637633 85.1795645 137.79562512 87.14668677 137 92 C136.34 92 135.68 92 135 92 C135.03480469 92.76183594 135.06960937 93.52367188 135.10546875 94.30859375 C135.32056678 102.51304708 134.48654535 108.76366348 130.3125 115.875 C126.468253 119.4075513 122.17862957 120.86383565 117 121.1875 C116.01 121.0946875 116.01 121.0946875 115 121 C115.33 120.01 115.66 119.02 116 118 C119.5625 116.8125 119.5625 116.8125 123 116 C120.78918149 115.89459074 120.78918149 115.89459074 118 117 C115.77181559 117.06937062 113.54165476 117.08457084 111.3125 117.0625 C110.13300781 117.05347656 108.95351562 117.04445313 107.73828125 117.03515625 C106.38283203 117.01775391 106.38283203 117.01775391 105 117 C104.67 116.01 104.34 115.02 104 114 C105.051875 114.04125 106.10375 114.0825 107.1875 114.125 C110.79304157 114.00678552 112.76818463 113.41775666 116 112 C115.09636719 112.01160156 114.19273437 112.02320312 113.26171875 112.03515625 C112.08222656 112.04417969 110.90273437 112.05320312 109.6875 112.0625 C108.51574219 112.07410156 107.34398437 112.08570312 106.13671875 112.09765625 C103 112 103 112 100 111 C100 110.34 100 109.68 100 109 C100.56847656 108.90203125 101.13695312 108.8040625 101.72265625 108.703125 C107.31734954 107.61967855 112.8252971 106.1747029 117 102 C117.16666667 99 117.16666667 99 117 96 C115.37070843 94.37070843 113.55305904 94.82924558 111.3125 94.8125 C107.17817829 94.85981699 103.79037005 95.19957422 100 97 C99.34 97.99 98.68 98.98 98 100 C97.34 100 96.68 100 96 100 C96.24378969 96.42441786 96.5062732 94.52458473 99 91.875 C105.89384212 87.56634868 111.87584909 85.51581911 120 85 C120 83.35 120 81.7 120 80 C119.49210938 79.87367187 118.98421875 79.74734375 118.4609375 79.6171875 C117.64882812 79.41351563 116.83671875 79.20984375 116 79 C114.85789063 78.71382813 113.71578125 78.42765625 112.5390625 78.1328125 C111.23424906 77.79736451 109.92956487 77.46141338 108.625 77.125 C107.97789062 76.96386719 107.33078125 76.80273438 106.6640625 76.63671875 C102.45769218 75.54272324 98.86608687 73.94961238 95 72 C91.74899636 71.74803177 91.74899636 71.74803177 89 72 C88.67 72.66 88.34 73.32 88 74 C87.154375 73.731875 86.30875 73.46375 85.4375 73.1875 C81.11072036 72.95149384 79.74376242 74.20279098 76.515625 76.87109375 C75 78 75 78 73 78 C74.1430172 84.74380147 75.54251688 86.96620813 81 91 C81 91.66 81 92.32 81 93 C79.35 92.67 77.7 92.34 76 92 C77.43590742 95.15899632 78.65685561 97.65685561 81.125 100.125 C83 102 83 102 83.375 103.9375 C84.71797115 108.36930479 89.54342737 110.74634854 93.375 112.875 C94.26832031 113.35066406 94.26832031 113.35066406 95.1796875 113.8359375 C97.26179223 115.1674122 98.76903603 116.73906263 100.5 118.5 C110.05677252 126.92717276 126.47119697 127.22389502 138.5690918 129.07470703 C156.57819482 131.95355297 156.57819482 131.95355297 162 138 C161.67 138.33 161.34 138.66 161 139 C164.3 140.65 167.6 142.3 171 144 C171 144.99 171 145.98 171 147 C171.598125 147.268125 172.19625 147.53625 172.8125 147.8125 C175.1342786 149.0728941 176.4494309 149.85873791 178 152 C178.6875 155.6875 178.6875 155.6875 179 159 C178.34 159.33 177.68 159.66 177 160 C177.33 160.763125 177.66 161.52625 178 162.3125 C179 165 179 165 179 168 C178.01 168.33 177.02 168.66 176 169 C177.93856562 172.5863464 179.7224587 174.62660802 183 177 C183 177.66 183 178.32 183 179 C181.02 179 179.04 179 177 179 C177 182.3 177 185.6 177 189 C175.02 188.67 173.04 188.34 171 188 C171.99 196.91 171.99 196.91 173 206 C168.33386261 204.13354504 164.56966434 202.5351967 161.86328125 198.1640625 C160.87787074 195.69384791 160.7971272 193.89767531 160.875 191.25 C160.89304688 190.45078125 160.91109375 189.6515625 160.9296875 188.828125 C160.95289063 188.22484375 160.97609375 187.6215625 161 187 C160.401875 186.9175 159.80375 186.835 159.1875 186.75 C156.27759765 185.7523192 155.51413681 184.65984864 154 182 C153.33984375 179.125 153.33984375 179.125 152.9375 176 C152.44403693 172.24028134 151.91050474 169.29780071 150 166 C150 167.65 150 169.3 150 171 C145.64122922 170.49706491 143.01940914 168.01940914 140 165 C139.625 162.1875 139.625 162.1875 140 160 C139.2575 159.7525 138.515 159.505 137.75 159.25 C134.79875938 157.90852699 133.15185026 156.39094474 131 154 C131 155.32 131 156.64 131 158 C126.77510398 157.46719784 124.45919284 156.12321801 121.1875 153.4375 C120.39730469 152.79683594 119.60710937 152.15617188 118.79296875 151.49609375 C118.20128906 151.00238281 117.60960937 150.50867188 117 150 C117 151.32 117 152.64 117 154 C113.13971531 153.44853076 111.45249515 151.98897847 109 149 C107.92951564 146.99637644 106.95471109 144.97598488 106.02734375 142.90234375 C104.92934133 140.86916056 103.65552904 139.59247199 102 138 C101.9124873 141.22899426 101.85943854 144.45768116 101.8125 147.6875 C101.78736328 148.59951172 101.76222656 149.51152344 101.73632812 150.45117188 C101.6193947 157.26154855 101.6193947 157.26154855 105 163 C110.48441889 167.71610984 115.56896671 167.73574953 122.45507812 168.04492188 C126.71827337 168.35581709 128.51605764 168.59963002 131.91796875 171.4140625 C132.60503906 172.26742187 133.29210937 173.12078125 134 174 C134.7425 174.804375 135.485 175.60875 136.25 176.4375 C139.69320545 181.47933656 139.0982224 186.97007033 138.8125 192.875 C138.80500889 196.89023708 139.8678624 199.55577772 142 203 C142.66 203.66 143.32 204.32 144 205 C143.67 205.99 143.34 206.98 143 208 C143.66 208.99 144.32 209.98 145 211 C146 213 147 215 148 217 C148.66 217.99 149.32 218.98 150 220 C149.90424546 225.7452722 148.87211014 228.67962185 145.30078125 233.0859375 C143.78283183 235.31955677 143.16509472 237.42343497 142.375 240 C140.30106738 245.5588194 136.7947667 247.79869191 131.8515625 250.8203125 C128.6859604 252.12991775 126.39250172 252.23016973 123 252 C120.64400939 248.31876467 120.64162827 245.30046079 121 241 C122.75 237.75390625 122.75 237.75390625 125 234.5625 C128.40884074 229.44410289 130.10361844 226.18026325 129 220 C128.11785113 217.11785113 128.11785113 217.11785113 127 215 C125.68 215 124.36 215 123 215 C122.87882813 214.43410156 122.75765625 213.86820313 122.6328125 213.28515625 C122.46523437 212.55167969 122.29765625 211.81820312 122.125 211.0625 C121.96257812 210.33160156 121.80015625 209.60070312 121.6328125 208.84765625 C121.17038477 206.79299706 121.17038477 206.79299706 119 206 C119 206.66 119 207.32 119 208 C118.34 208 117.68 208 117 208 C116.54427083 205.98177083 116.08854167 203.96354167 115.6328125 201.9453125 C115.09525572 199.79280036 115.09525572 199.79280036 113 198 C110.34498573 197.99115977 107.824436 198.09412507 105.1875 198.3125 C104.47529297 198.36083984 103.76308594 198.40917969 103.02929688 198.45898438 C100.03645452 198.67770273 97.19104102 198.95176009 94.27734375 199.6875 C91.25122521 200.10274783 89.95315506 199.26008599 87.375 197.6875 C86.24191406 197.01267578 86.24191406 197.01267578 85.0859375 196.32421875 C83.37606971 195.23874088 81.68516583 194.12344389 80 193 C80 193.66 80 194.32 80 195 C74.98886765 193.5682479 73.05530451 191.01554307 70 187 C68.35 187.33 66.7 187.66 65 188 C61.95911984 184.4782969 59.99840887 181.1812663 58.25 176.875 C57.60804687 175.32425781 57.60804687 175.32425781 56.953125 173.7421875 C56 171 56 171 56 168 C55.28714844 168.26554688 54.57429688 168.53109375 53.83984375 168.8046875 C48.59908559 170.73734932 43.39770588 172.56061176 38 174 C38 175.65 38 177.3 38 179 C38.80824219 179.15855469 39.61648437 179.31710938 40.44921875 179.48046875 C51.61176471 181.91764706 51.61176471 181.91764706 55 187 C55.93141731 189.67969257 56.47688458 192.19419912 57 195 C56.01 195.33 55.02 195.66 54 196 C53.34 194.68 52.68 193.36 52 192 C51.62875 192.9590625 51.62875 192.9590625 51.25 193.9375 C50 196 50 196 47.9375 196.6875 C47.298125 196.790625 46.65875 196.89375 46 197 C44.50256881 198.49743119 44.66797307 199.98824239 44.4375 202.0625 C44.293125 203.361875 44.14875 204.66125 44 206 C43.01 205.67 42.02 205.34 41 205 C40.4225 206.11375 39.845 207.2275 39.25 208.375 C37.57739798 211.33192143 36.35017758 212.92315721 33 214 C32.67 213.67 32.34 213.34 32 213 C29.67409146 216.63423209 29.83734167 219.77088331 30 224 C29.34 224 28.68 224 28 224 C27.67 224.66 27.34 225.32 27 226 C26.34 226 25.68 226 25 226 C25.33 227.98 25.66 229.96 26 232 C25.37996094 232.21011719 24.75992188 232.42023438 24.12109375 232.63671875 C21.13447617 234.55629432 20.96725693 236.43112731 20.0625 239.8125 C17.47355368 248.11704318 17.47355368 248.11704318 13 251 C10.79262648 251.49052745 8.69149689 251.69425551 6.43359375 251.8203125 C3.97341132 252.00196321 1.76925294 252.48086784 -0.625 253.0625 C-9.95859047 255.00213677 -19.91407905 254.96683133 -29 252 C-28.66002653 249.1291129 -28.17566947 248.15345839 -25.9609375 246.21875 C-23.3174771 244.46176725 -20.67494988 242.70877396 -18 241 C-17.07574219 240.38898438 -17.07574219 240.38898438 -16.1328125 239.765625 C-12.80264469 237.69422875 -9.55788876 236.52793151 -5.8125 235.5 C-1.84863915 234.37690609 0.52951611 233.45867745 3 230 C4.06011943 228.03120677 5.07470849 226.03564133 6 224 C5.01 224.33 4.02 224.66 3 225 C3.144375 224.443125 3.28875 223.88625 3.4375 223.3125 C4.69009742 218.45890261 4.69009742 218.45890261 4.6875 213.5 C4.8421875 212.2625 4.8421875 212.2625 5 211 C6.54443581 209.8094974 8.0908524 208.62096021 9.6640625 207.46875 C11.44315276 205.51279112 11.40254355 204.29495587 11.375 201.6875 C11.25125 200.470625 11.1275 199.25375 11 198 C8.03 197.67 5.06 197.34 2 197 C2 197.66 2 198.32 2 199 C-3.34844008 198.46515599 -7.35796103 196.53309233 -12 194 C-12.33 194.99 -12.66 195.98 -13 197 C-13.99 196.67 -14.98 196.34 -16 196 C-17.03101947 193.68020619 -18.02936517 191.34570085 -19 189 C-19.52722656 188.51402344 -20.05445312 188.02804688 -20.59765625 187.52734375 C-22 186 -22 186 -22.21484375 184.08984375 C-20.5584817 171.23554111 -14.8143859 162.41101758 -4.75 154.25 C-2.57636595 152.47157214 -1.1367748 151.03197421 0.5625 148.875 C2.94014854 146.07059403 4.84600525 144.77917652 8 143 C9.35251497 141.68612831 10.68945377 140.35573748 12 139 C12.66 138.67 13.32 138.34 14 138 C14 137.34 14 136.68 14 136 C14.51046875 135.79246094 15.0209375 135.58492187 15.546875 135.37109375 C27.99653874 130.39566315 27.99653874 130.39566315 38 122 C37.76522801 118.35458155 37.76522801 118.35458155 37 115 C33.70776216 115 31.91489643 115.50518132 29 117 C28.71125 117.639375 28.4225 118.27875 28.125 118.9375 C26.36097231 122.17155076 23.31045747 122.64034782 20 124 C19.34 124.99 18.68 125.98 18 127 C15.67624308 127.39460023 13.3406065 127.72230092 11 128 C9.31050386 128.60648579 7.64363134 129.27840576 6 130 C4.62897658 130.55165439 3.25362758 131.09263379 1.875 131.625 C1.21242187 131.88539063 0.54984375 132.14578125 -0.1328125 132.4140625 C-2 133 -2 133 -5 133 C-4.67 132.01 -4.34 131.02 -4 130 C-4.90621094 129.85304687 -5.81242187 129.70609375 -6.74609375 129.5546875 C-14.88636169 128.05584451 -20.50700047 126.06898153 -27 121 C-27.58910156 120.64421875 -28.17820312 120.2884375 -28.78515625 119.921875 C-38.93573743 113.72516485 -45.77900916 100.83597649 -50 90 C-50.70662338 86.63190293 -51.0554654 83.43885483 -51 80 C-50.34 80 -49.68 80 -49 80 C-48.67 80.99 -48.34 81.98 -48 83 C-46.68 81.02 -45.36 79.04 -44 77 C-43.31292445 79.49064888 -43 81.37886292 -43 84 C-42.38125 82.88625 -41.7625 81.7725 -41.125 80.625 C-39.86718769 78.36093785 -38.85384858 76.85384858 -37 75 C-36.01 75 -35.02 75 -34 75 C-34.309375 75.515625 -34.61875 76.03125 -34.9375 76.5625 C-36.29059287 79.66665423 -36.61359424 82.65115007 -37 86 C-36.4225 85.071875 -35.845 84.14375 -35.25 83.1875 C-33.27710086 80.39255955 -31.89107103 78.73464262 -29 77 C-28.34 77 -27.68 77 -27 77 C-27.309375 77.5775 -27.61875 78.155 -27.9375 78.75 C-30.65209058 84.49854477 -30.65595205 90.75567727 -30 97 C-28.24651469 100.20840065 -28.24651469 100.20840065 -26 102 C-24.06268744 101.8126566 -24.06268744 101.8126566 -22 101 C-19.21413975 97.10146884 -17.55411186 92.73030707 -18.25 87.9375 C-18.4975 86.968125 -18.745 85.99875 -19 85 C-18.34 85 -17.68 85 -17 85 C-13.44558329 91.490674 -12.4089302 96.07337083 -14.4375 103.25 C-15.58590943 107.07461918 -15.58590943 107.07461918 -16 111 C-12.28170785 110.62058243 -9.36335296 110.18167648 -6 108.5 C-1.12375782 106.1571618 4.46857156 106.58240022 9.76953125 106.50390625 C13.0175663 106.36323923 13.0175663 106.36323923 14.41015625 104.29296875 C15.06233516 101.75767723 15.41890976 99.36047639 15.625 96.75 C15.69976562 95.85796875 15.77453125 94.9659375 15.8515625 94.046875 C15.90054688 93.37140625 15.94953125 92.6959375 16 92 C15.43410156 91.68546875 14.86820312 91.3709375 14.28515625 91.046875 C13.55167969 90.61890625 12.81820312 90.1909375 12.0625 89.75 C11.33160156 89.33234375 10.60070313 88.9146875 9.84765625 88.484375 C8 87 8 87 7.18359375 85.015625 C7 83 7 83 8 80 C8.09377689 78.16859259 8.12992957 76.33380013 8.125 74.5 C8.12757812 73.5409375 8.13015625 72.581875 8.1328125 71.59375 C8.10992972 68.88428848 8.10992972 68.88428848 7 66 C8.21999305 62.64501911 9.40738495 59.75216526 11.625 56.9375 C13.43692332 54.38433533 13.65094561 52.07167865 14 49 C13.01 48.505 13.01 48.505 12 48 C12.268125 46.88625 12.53625 45.7725 12.8125 44.625 C13.49256236 38.90029592 11.38200756 34.53981195 8 30 C5.7829546 28.18605376 3.58688235 26.74287312 1.0859375 25.3515625 C-1.34112286 23.77897283 -2.57438496 22.52052315 -4 20 C-4.78189098 13.96346536 -4.63545415 7.56373653 -2 2 C-1.34 1.34 -0.68 0.68 0 0 Z M-1 14 C-0.67 14.99 -0.34 15.98 0 17 C0.66 16.67 1.32 16.34 2 16 C1.01 15.34 0.02 14.68 -1 14 Z M174 156 C174.66 156.66 175.32 157.32 176 158 C176 157.34 176 156.68 176 156 C175.34 156 174.68 156 174 156 Z " fill="#000000" transform="translate(52,2)"/>
</svg>
